<svg xmlns="http://www.w3.org/2000/svg" viewBox="0 0 691 80">
  <defs>
    <style>
      .cls-1 {
        fill: #393938;
      }
    </style>
  </defs>
  <g id="Color">
    <g>
      <path class="cls-1" d="M23.33008,10.32324H33.55469l21.602,50.76465H43.564L38.95557,49.7832H17.6416L13.0332,61.08789H1.728Zm11.665,29.667-6.69678-16.3457L21.602,39.99023Z"/>
      <path class="cls-1" d="M62.27979,8.52344H73.22461V61.08789H62.27979Z"/>
      <path class="cls-1" d="M85.31934,50.14258V31.85352h-4.6084V22.49219h4.6084V12.62793H96.26416v9.86426h9.07275v9.36133H96.26416V48.34277c0,2.52051,1.08008,3.74414,3.52832,3.74414a11.1288,11.1288,0,0,0,5.40039-1.36816v8.78516a16.1347,16.1347,0,0,1-8.64062,2.23242C89.85547,61.73633,85.31934,59.07129,85.31934,50.14258Z"/>
      <path class="cls-1" d="M111.09424,49.999v-.14453c0-8.42383,6.40869-12.3125,15.55322-12.3125a27.41764,27.41764,0,0,1,9.43311,1.584v-.64844c0-4.53613-2.8086-7.05664-8.28077-7.05664a28.39487,28.39487,0,0,0-10.65722,2.08887l-2.73633-8.35254a34.0407,34.0407,0,0,1,14.97754-3.09668c5.97656,0,10.29687,1.584,13.0332,4.32031,2.88037,2.87988,4.17627,7.12891,4.17627,12.31348V61.08789h-10.585V56.91113a14.83628,14.83628,0,0,1-11.665,4.89649C117.0708,61.80762,111.09424,57.63184,111.09424,49.999Zm25.12988-2.5205V45.53418a16.98305,16.98305,0,0,0-6.98437-1.43945c-4.68018,0-7.56055,1.87207-7.56055,5.32812v.14356c0,2.95312,2.44824,4.68066,5.97656,4.68066C132.76807,54.24707,136.22412,51.43945,136.22412,47.47852Z"/>
      <path class="cls-1" d="M156.23828,8.52344h11.521v9.7207h-11.521Zm.28809,13.96875h10.94482v38.5957H156.52637Z"/>
      <path class="cls-1" d="M177.76514,22.49219H188.71v7.77734c2.23242-5.3291,5.83252-8.78515,12.313-8.49707V33.22168h-.57568c-7.273,0-11.73731,4.39258-11.73731,13.60937V61.08789H177.76514Z"/>
      <path class="cls-1" d="M227.15625,53.74316l6.55273-7.84863c4.53614,3.74414,9.28858,6.12012,15.04883,6.12012,4.53662,0,7.27295-1.79981,7.27295-4.752v-.14356c0-2.80859-1.728-4.249-10.15283-6.40918-10.15283-2.5918-16.70557-5.40039-16.70557-15.40918v-.14355c0-9.14551,7.34473-15.19336,17.6416-15.19336a29.177,29.177,0,0,1,18.72168,6.4082l-5.76074,8.35254c-4.46435-3.0957-8.85644-4.96875-13.105-4.96875s-6.48047,1.94434-6.48047,4.39258V24.293c0,3.3125,2.16016,4.39258,10.87305,6.624,10.22461,2.66406,15.98535,6.33692,15.98535,15.12207v.14356c0,10.00879-7.63281,15.625-18.50586,15.625A32.0739,32.0739,0,0,1,227.15625,53.74316Z"/>
      <path class="cls-1" d="M275.54,22.49219h10.94482v5.47265c2.52051-3.24023,5.83252-6.19238,11.377-6.19238,5.04052,0,8.85693,2.23242,10.873,6.12012,3.38428-3.96,7.41651-6.12012,12.67285-6.12012,8.13721,0,13.0337,4.89649,13.0337,14.18555V61.08789H323.49609V39.55762c0-5.1836-2.3042-7.84864-6.40869-7.84864-4.104,0-6.62451,2.665-6.62451,7.84864V61.08789H299.51807V39.55762c0-5.1836-2.3042-7.84864-6.40869-7.84864-4.104,0-6.62452,2.665-6.62452,7.84864V61.08789H275.54Z"/>
      <path class="cls-1" d="M341.63574,49.999v-.14453c0-8.42383,6.40918-12.3125,15.55371-12.3125a27.41255,27.41255,0,0,1,9.43262,1.584v-.64844c0-4.53613-2.80762-7.05664-8.28027-7.05664a28.39488,28.39488,0,0,0-10.65723,2.08887l-2.73633-8.35254a34.04231,34.04231,0,0,1,14.97754-3.09668c5.97656,0,10.29688,1.584,13.0332,4.32031,2.87989,2.87988,4.17579,7.12891,4.17579,12.31348V61.08789h-10.584V56.91113a14.83847,14.83847,0,0,1-11.665,4.89649C347.6123,61.80762,341.63574,57.63184,341.63574,49.999Zm25.13086-2.5205V45.53418a16.98438,16.98438,0,0,0-6.98535-1.43945c-4.67969,0-7.56055,1.87207-7.56055,5.32812v.14356c0,2.95312,2.44825,4.68066,5.97657,4.68066C363.30957,54.24707,366.7666,51.43945,366.7666,47.47852Z"/>
      <path class="cls-1" d="M386.56348,22.49219h10.94531v7.77734c2.23144-5.3291,5.832-8.78515,12.3125-8.49707V33.22168h-.57617c-7.27246,0-11.73633,4.39258-11.73633,13.60937V61.08789H386.56348Z"/>
      <path class="cls-1" d="M418.46,50.14258V31.85352h-4.6084V22.49219H418.46V12.62793h10.94531v9.86426h9.07227v9.36133h-9.07227V48.34277c0,2.52051,1.08008,3.74414,3.52832,3.74414a11.13018,11.13018,0,0,0,5.40039-1.36816v8.78516a16.13715,16.13715,0,0,1-8.64062,2.23242C422.99707,61.73633,418.46,59.07129,418.46,50.14258Z"/>
      <path class="cls-1" d="M443.80273,10.68359h11.88086L466.125,44.81445l11.30469-34.27539h9.50488l11.30469,34.27539,10.4414-34.13086h11.59278l-17.21,50.76465H493.415L482.03809,28.46875l-11.377,32.97949H461.0127Z"/>
      <path class="cls-1" d="M520.77148,42.00586V41.8623c0-11.08886,8.92872-20.08984,20.95411-20.08984,11.95214,0,20.80957,8.85645,20.80957,19.94531v.14453c0,11.08887-8.92871,20.08985-20.95411,20.08985C529.62793,61.95215,520.77148,53.09473,520.77148,42.00586Zm30.9629,0V41.8623c0-5.68847-4.1045-10.65722-10.15333-10.65722-6.26464,0-10.00878,4.82422-10.00878,10.51269v.14453c0,5.68848,4.10449,10.65723,10.15332,10.65723C547.98926,52.51953,551.73438,47.69434,551.73438,42.00586Z"/>
      <path class="cls-1" d="M570.45117,22.49219h10.94531v7.77734c2.23145-5.3291,5.832-8.78515,12.3125-8.49707V33.22168h-.57617c-7.27246,0-11.73633,4.39258-11.73633,13.60937V61.08789H570.45117Z"/>
      <path class="cls-1" d="M600.54688,8.52344h10.94531V36.53418l12.8164-14.042h13.10547L622.72461,37.68555,637.918,61.08789H625.24512l-9.86524-15.8418-3.88769,4.1045v11.7373H600.54688Z"/>
      <path class="cls-1" d="M640.14551,55.97559l4.68066-7.20118c4.17578,3.02442,8.56836,4.6084,12.16895,4.6084,3.168,0,4.6084-1.15136,4.6084-2.87988v-.14355c0-2.377-3.74414-3.169-7.99317-4.46485-5.40039-1.584-11.52051-4.10449-11.52051-11.59277v-.14453c0-7.84864,6.33692-12.24121,14.11328-12.24121a26.71036,26.71036,0,0,1,14.40137,4.46484l-4.17676,7.56055c-3.8164-2.23243-7.63281-3.60059-10.44043-3.60059-2.665,0-4.03222,1.15234-4.03222,2.665v.14355c0,2.16016,3.67187,3.168,7.84863,4.6084,5.40039,1.79981,11.665,4.39258,11.665,11.44922v.14356c0,8.56933-6.40918,12.457-14.76172,12.457A27.0362,27.0362,0,0,1,640.14551,55.97559Z"/>
    </g>
  </g>
</svg>
